<svg xmlns="http://www.w3.org/2000/svg" xmlns:xlink="http://www.w3.org/1999/xlink" viewBox="0 0 221.05 69.99"><defs><style>.cls-1{fill:#fff;}</style><symbol id="Logo" data-name="Logo" viewBox="0 0 221.05 69.99"><g id="Group_6" data-name="Group 6"><g id="Group_4" data-name="Group 4"><g id="Group_3" data-name="Group 3"><g id="Group_2" data-name="Group 2"><path id="Path_20" data-name="Path 20" class="cls-1" d="M84.07,42.46H79.18V25.12h4.89v1.63a6.22,6.22,0,0,1,4.82-2c3.47,0,5.52,2.12,5.52,6.56V42.46h-4.9v-11a2.23,2.23,0,0,0-1.88-2.52,2.53,2.53,0,0,0-.55,0c-1.8,0-3,1.49-3,5.38Z"/><path id="Path_21" data-name="Path 21" class="cls-1" d="M113.55,41.11a16.06,16.06,0,0,1-6.87,1.7c-5.9,0-9.53-3.43-9.53-9,0-5.41,2.91-9,8.63-9,5.41,0,8.08,3.47,8.08,8.26V35.6H102.21c.49,1.94,1.91,3.08,4.58,3.08a12.28,12.28,0,0,0,5.2-1.42Zm-11.24-9.5h6.63c-.14-1.87-1.42-2.7-3.16-2.7a3.38,3.38,0,0,0-3.47,2.69Z"/><path id="Path_22" data-name="Path 22" class="cls-1" d="M116.15,33.79c0-5.41,2.88-9,8.64-9s8.6,3.61,8.6,9-2.84,9-8.6,9S116.15,39.2,116.15,33.79Zm4.9,0c0,3,1.21,4.89,3.74,4.89s3.71-1.91,3.71-4.89-1.18-4.89-3.71-4.89-3.74,1.91-3.74,4.89Z"/><path id="Path_23" data-name="Path 23" class="cls-1" d="M138.6,25.12l3.57,10.3,3.64-10.3h5.24l-6.8,17.34h-4.13l-6.8-17.34Z"/><path id="Path_24" data-name="Path 24" class="cls-1" d="M153.34,29.25h-2V25.12h4.61c1.73,0,2.29.28,2.29,1.91V42.46h-4.89Zm.1-11.07h4.72v4.58h-4.72Z"/><path id="Path_25" data-name="Path 25" class="cls-1" d="M172.65,30.22A10.27,10.27,0,0,0,168,28.9c-1.14,0-1.91.35-1.91,1.07,0,2.19,8.85,1.15,8.85,7.08,0,4.09-3.12,5.76-7.22,5.76a11.24,11.24,0,0,1-7.28-2.29l2.25-3.75a9.12,9.12,0,0,0,5.07,1.91c1.07,0,2.29-.14,2.29-1.28,0-2.6-8.85-1-8.85-7.43,0-3.74,3.33-5.2,7-5.2a13.74,13.74,0,0,1,6.32,1.5Z"/><path id="Path_26" data-name="Path 26" class="cls-1" d="M178.17,29.25h-2V25.12h4.61c1.74,0,2.29.28,2.29,1.91V42.46h-4.89Zm.1-11.07H183v4.58h-4.72Z"/><path id="Path_27" data-name="Path 27" class="cls-1" d="M185.8,33.79c0-5.41,2.88-9,8.64-9s8.6,3.61,8.6,9-2.84,9-8.6,9S185.8,39.2,185.8,33.79Zm4.9,0c0,3,1.21,4.89,3.74,4.89s3.71-1.91,3.71-4.89S197,28.9,194.44,28.9,190.7,30.81,190.7,33.79Z"/><path id="Path_28" data-name="Path 28" class="cls-1" d="M210.71,42.46h-4.89V25.12h4.89v1.63a6.22,6.22,0,0,1,4.82-2c3.47,0,5.52,2.12,5.52,6.56V42.46h-4.89v-11a2.24,2.24,0,0,0-1.89-2.52,2.44,2.44,0,0,0-.54,0c-1.8,0-3,1.49-3,5.38Z"/></g></g></g><g id="Group_5" data-name="Group 5"><path id="Path_29" data-name="Path 29" class="cls-1" d="M56.26,35c0-1.62,0-3.24,0-4.86,0-.47.09-.65.62-.65,3.24,0,6.47,0,9.71,0,.48,0,.6.15.6.61q0,4.89,0,9.78c0,.46-.11.62-.59.62-3.24,0-6.48,0-9.71,0-.54,0-.64-.19-.63-.65C56.28,38.22,56.26,36.6,56.26,35Z"/><path id="Path_30" data-name="Path 30" class="cls-1" d="M5.42,40.47c-1.57,0-3.14,0-4.71,0-.52,0-.71-.11-.71-.67Q0,35,0,30.16c0-.45.06-.68.62-.68,3.22,0,6.43,0,9.65,0,.48,0,.65.12.64.63q0,4.86,0,9.72c0,.49-.11.66-.63.65C8.66,40.45,7,40.47,5.42,40.47Z"/><path id="Path_31" data-name="Path 31" class="cls-1" d="M33.53,19.28c-1.6,0-3.19,0-4.79,0-.51,0-.64-.16-.64-.65,0-3.21,0-6.43,0-9.64,0-.5.14-.64.64-.64q4.85,0,9.71,0c.49,0,.65.13.64.63,0,3.22,0,6.43,0,9.65,0,.48-.11.66-.63.65C36.81,19.26,35.17,19.28,33.53,19.28Z"/><path id="Path_32" data-name="Path 32" class="cls-1" d="M33.56,61.6c-1.62,0-3.24,0-4.86,0-.44,0-.61-.09-.61-.58,0-3.24,0-6.47,0-9.71,0-.51.16-.64.65-.63h9.71c.5,0,.65.14.65.64,0,3.21,0,6.43,0,9.64,0,.57-.2.65-.69.65C36.79,61.58,35.18,61.6,33.56,61.6Z"/><path id="Path_33" data-name="Path 33" class="cls-1" d="M12.49,20.82c0-1.4,0-2.81,0-4.21,0-.52.16-.64.65-.64q4.21,0,8.43,0c.47,0,.62.12.61.6,0,2.83,0,5.67,0,8.5,0,.48-.14.61-.6.6-2.81,0-5.62,0-8.43,0-.58,0-.67-.2-.66-.7C12.5,23.59,12.49,22.21,12.49,20.82Z"/><path id="Path_34" data-name="Path 34" class="cls-1" d="M17.37,44.31c1.38,0,2.76,0,4.14,0,.47,0,.68.06.67.61,0,2.84,0,5.67,0,8.51,0,.43-.1.57-.55.57Q17.33,54,13,54c-.47,0-.55-.16-.55-.58,0-2.83,0-5.67,0-8.5,0-.46.09-.63.59-.61C14.51,44.33,15.94,44.31,17.37,44.31Z"/><path id="Path_35" data-name="Path 35" class="cls-1" d="M49.83,54c-1.38,0-2.76,0-4.15,0-.46,0-.67-.06-.66-.61,0-2.83,0-5.67,0-8.51,0-.42.1-.58.55-.57q4.29,0,8.58,0c.46,0,.55.15.55.57,0,2.84,0,5.68,0,8.51,0,.55-.2.62-.67.61-1.4,0-2.81,0-4.21,0Z"/><path id="Path_36" data-name="Path 36" class="cls-1" d="M49.86,16c1.43,0,2.86,0,4.29,0,.4,0,.53.1.52.51q0,4.29,0,8.58c0,.43-.15.5-.53.5-2.84,0-5.67,0-8.51,0-.5,0-.59-.18-.58-.62,0-2.79,0-5.58,0-8.36,0-.54.2-.62.67-.61C47.09,16.05,48.47,16,49.86,16Z"/><path id="Path_37" data-name="Path 37" class="cls-1" d="M48.58,10.75c-.95,0-1.9,0-2.86,0-.4,0-.52-.12-.52-.53,0-1.88,0-3.76,0-5.63,0-.43.15-.52.54-.51h5.71c.4,0,.53.11.53.52q0,2.82,0,5.64c0,.43-.16.52-.55.51C50.48,10.73,49.53,10.75,48.58,10.75Z"/><path id="Path_38" data-name="Path 38" class="cls-1" d="M18.57,65.88c-.93,0-1.86,0-2.78,0-.43,0-.58-.08-.58-.54,0-1.86,0-3.71,0-5.57,0-.42.11-.58.56-.58q2.85,0,5.7,0c.4,0,.54.12.53.53,0,1.88,0,3.75,0,5.63,0,.4-.09.54-.51.53C20.52,65.86,19.54,65.88,18.57,65.88Z"/><path id="Path_39" data-name="Path 39" class="cls-1" d="M57.36,13c0-.76,0-1.52,0-2.28,0-.39.08-.56.51-.55,1.6,0,3.19,0,4.78,0,.38,0,.5.13.5.5,0,1.6,0,3.19,0,4.78,0,.39-.15.49-.51.49-1.59,0-3.19,0-4.78,0-.42,0-.47-.2-.47-.53,0-.81,0-1.61,0-2.42Z"/><path id="Path_40" data-name="Path 40" class="cls-1" d="M7,54c.76,0,1.52,0,2.28,0,.41,0,.58.07.59.53,0,1.57-.16,3.13,0,4.69,0,.45-.15.56-.57.56-1.55,0-3.09,0-4.64,0-.43,0-.58-.14-.57-.58,0-1.54,0-3.09,0-4.63,0-.44.13-.59.56-.57C5.4,54,6.18,54,7,54Z"/><path id="Path_41" data-name="Path 41" class="cls-1" d="M40.93,2.39c0,.6,0,1.19,0,1.79,0,.36-.09.5-.48.5-1.21,0-2.43,0-3.64,0-.38,0-.56-.09-.55-.52,0-1.21,0-2.43,0-3.64,0-.42.15-.53.54-.52C38,0,39.24,0,40.45,0c.37,0,.51.1.49.48,0,.64,0,1.28,0,1.92Z"/><path id="Path_42" data-name="Path 42" class="cls-1" d="M26.26,67.59c0-.62,0-1.24,0-1.85,0-.35.1-.45.44-.44,1.24,0,2.47,0,3.71,0,.42,0,.52.15.52.54q0,1.78,0,3.57c0,.42-.1.59-.56.58q-1.82,0-3.63,0c-.38,0-.5-.09-.49-.48C26.28,68.87,26.26,68.23,26.26,67.59Z"/><path id="Path_43" data-name="Path 43" class="cls-1" d="M23.27,12.84c-1.53,0-1.53,0-1.53-1.52s0-1.52,1.54-1.52,1.49,0,1.49,1.49v.07C24.77,12.84,24.77,12.84,23.27,12.84Z"/><path id="Path_44" data-name="Path 44" class="cls-1" d="M44,57.13c1.49,0,1.49,0,1.49,1.47s0,1.56-1.55,1.56-1.48,0-1.48-1.48S42.43,57.13,44,57.13Z"/><path id="Path_45" data-name="Path 45" class="cls-1" d="M58.91,46.62c0-1.5,0-1.5,1.51-1.5s1.5,0,1.5,1.51,0,1.54-1.48,1.54S58.91,48.17,58.91,46.62Z"/><path id="Path_46" data-name="Path 46" class="cls-1" d="M6.84,21.8c1.45,0,1.45,0,1.45,1.44,0,1.6,0,1.6-1.63,1.6-1.38,0-1.38,0-1.38-1.35v-.15C5.28,21.8,5.28,21.8,6.84,21.8Z"/><path id="Path_47" data-name="Path 47" class="cls-1" d="M33.83,23.88a11,11,0,1,0,10.93,11v-.07A11,11,0,0,0,33.83,23.88ZM37.21,33a3,3,0,0,1-3-2.94V30a3,3,0,0,1,2.92-3.06h.09a3,3,0,0,1,0,6.08Z"/></g></g></symbol></defs><title>Ativo 3</title><g id="Camada_2" data-name="Camada 2"><g id="Layer_1" data-name="Layer 1"><use width="221.05" height="69.99" xlink:href="#Logo"/></g></g></svg>